<svg xmlns="http://www.w3.org/2000/svg" viewBox="0 0 24 24" xml:space="preserve">
  <path d="M21 11c0 6.7-4.3 6.4-4.8 6.4-.6 0-1.1-.1-1.6-.4-.4-.3-.8-.6-1-1.1-.4.5-.8.9-1.3 1.1-.5.3-1 .4-1.6.4-.5 0-1-.1-1.4-.3s-.8-.6-1-1q-.45-.6-.6-1.5c-.1-.6-.1-1.3-.1-2 .1-.9.3-1.7.6-2.5.3-.7.7-1.4 1.1-1.9q.6-.75 1.5-1.2c.6-.3 1.2-.4 1.8-.4 2 0 3.1 1 3.3 1.2l-.5 6.2c0 .4-.2 1.8 1.1 1.8.4 0 2.4-.5 2.4-4.7 0-.1.9-7-6.6-7C6.3 4 5 9.9 5 12c0 8.4 5.3 8 7 8 2 0 3.1-.4 3.3-.5l.4 1.8c-.2.2-1.2.7-3.7.7-3.1 0-9-.1-9-10 0-1.4.8-10 9.5-10 8.3 0 8.5 7.6 8.5 9m-10.9 1.6c-.1.9 0 1.7.2 2.2s.6.7 1.2.7c1.1 0 1.7-1.4 1.8-1.8l.5-5.1c-.1 0-.7-.1-.9-.1-.8 0-1.5.4-1.9 1.1q-.75.9-.9 3" fill="blue" />
  <path style="fill:none" d="M0 0h24v24H0z"/>
</svg>
